<svg xmlns="http://www.w3.org/2000/svg" xmlns:xlink="http://www.w3.org/1999/xlink" width="1920" zoomAndPan="magnify" viewBox="0 0 1440 809.999993" height="1080" preserveAspectRatio="xMidYMid meet" version="1.0"><defs><clipPath id="7b62bbe586"><path d="M 205.164062 163.492188 L 1245.722656 163.492188 L 1245.722656 650.046875 L 205.164062 650.046875 Z M 205.164062 163.492188 " clip-rule="nonzero"/></clipPath></defs><rect x="-144" width="1728" fill="#ffffff" y="-80.999999" height="971.999992" fill-opacity="1"/><rect x="-144" width="1728" fill="#ffffff" y="-80.999999" height="971.999992" fill-opacity="1"/><path fill="#fffdf0" d="M 1203.4375 614.6875 L 901.886719 614.6875 C 899.882812 622.28125 893.589844 629.179688 882.179688 633.230469 C 862.140625 640.359375 827.417969 637.652344 822.082031 617.238281 C 821.859375 616.378906 821.675781 615.527344 821.523438 614.6875 L 582.894531 614.6875 C 582.742188 615.527344 582.5625 616.378906 582.335938 617.238281 C 577.003906 637.652344 542.277344 640.359375 522.238281 633.230469 C 510.832031 629.179688 504.535156 622.28125 502.53125 614.6875 L 303.972656 614.6875 C 304.710938 618.78125 304.5625 623.175781 303.363281 627.765625 C 298.03125 648.179688 263.308594 650.886719 243.265625 643.761719 C 206.6875 630.757812 222.6875 588.578125 264.011719 587.550781 C 264.316406 587.542969 264.613281 587.542969 264.914062 587.539062 C 243.691406 548.972656 248.308594 489.1875 292.21875 448.015625 C 257.773438 434.648438 232.539062 414.628906 216.007812 364.464844 C 190.984375 288.507812 229.964844 232.074219 243.773438 232.074219 C 260.535156 232.074219 284.914062 274.984375 309.683594 345.5625 C 320.148438 375.378906 336.152344 396.777344 354.195312 413.078125 C 362.691406 410.414062 371.777344 408.183594 381.476562 406.460938 C 386.558594 405.5625 391.527344 404.839844 396.386719 404.285156 C 396.441406 388.070312 393.558594 366.609375 382.867188 342.160156 C 345.640625 257.023438 372.375 211.800781 390.050781 198.839844 C 406.367188 186.871094 433.027344 222.933594 466.734375 281.882812 C 494.460938 330.367188 489.976562 375.390625 468.097656 409.179688 C 505.535156 420.050781 531.398438 443.785156 546.050781 471.671875 C 558.339844 437.960938 583.238281 408.773438 619.398438 391.132812 C 588.589844 373.519531 554.285156 344.730469 541.539062 296.257812 C 526.707031 239.84375 547.464844 169.835938 563.976562 166.753906 C 583.148438 163.179688 632.410156 194.558594 655.078125 288.148438 C 664.492188 327.027344 674.609375 351.53125 686.828125 373.816406 C 692.695312 373.414062 698.722656 373.234375 704.910156 373.304688 C 706.207031 373.320312 707.492188 373.351562 708.773438 373.386719 C 714.511719 354.164062 722.449219 330.488281 730.605469 305.328125 C 758.066406 220.609375 820.019531 190.945312 873.214844 189.542969 C 890.203125 189.09375 885.378906 276.285156 860 316.445312 C 838.6875 350.167969 812.167969 374.058594 786.894531 389.996094 C 813.792969 402.195312 833.871094 420.304688 847.40625 441.742188 C 862.429688 419.046875 885.941406 400.734375 917.851562 391.550781 C 894.820312 354.820312 891.15625 306.226562 923.378906 255.441406 C 961.390625 195.523438 990.945312 159.160156 1007.40625 172.433594 C 1025.234375 186.808594 1050.972656 235.292969 1008.03125 322.375 C 995.703125 347.375 991.664062 369.632812 990.941406 386.554688 C 994.976562 387 999.085938 387.558594 1003.265625 388.226562 C 1012.671875 389.726562 1021.53125 391.738281 1029.871094 394.195312 C 1046.597656 373.339844 1059.828125 348.199219 1068.082031 313.777344 C 1086.902344 235.265625 1115.050781 188.996094 1140.078125 188.996094 C 1154.351562 188.996094 1199.40625 250.039062 1172.460938 336.84375 C 1160.160156 376.484375 1125.277344 406.191406 1087.984375 424.433594 C 1128.382812 458.25 1140.957031 508.207031 1129.277344 551.214844 C 1144.171875 536.722656 1160.484375 517.625 1176.253906 490.726562 C 1197.988281 453.628906 1235.023438 462.886719 1239.902344 489.226562 C 1249.238281 539.59375 1229.269531 593.242188 1203.4375 614.6875 " fill-opacity="1" fill-rule="nonzero"/><path fill="#d35959" d="M 714.101562 529.410156 C 714.101562 529.410156 713.371094 535.84375 711.171875 538.566406 C 709.996094 540.015625 697.757812 539.199219 697.757812 539.199219 L 693.386719 530.007812 C 689.09375 532.730469 683.3125 534.550781 675.808594 533.417969 C 675.808594 533.417969 677.230469 576.914062 704.613281 576.914062 C 729.5625 576.914062 730.457031 535.628906 730.457031 535.628906 Z M 978.386719 516.785156 C 969.800781 533.464844 963.144531 531.171875 963.144531 531.171875 C 963.140625 550.324219 976.304688 564.074219 987.378906 536.246094 C 975.613281 528.511719 978.386719 516.785156 978.386719 516.785156 Z M 420.832031 513.300781 C 422.96875 533.59375 411.121094 547.785156 397.703125 521.605469 C 408.492188 512.953125 404.6875 501.738281 404.6875 501.738281 C 413.75 517.046875 420.832031 513.300781 420.832031 513.300781 " fill-opacity="1" fill-rule="nonzero"/><path fill="#f4bddc" d="M 817.191406 510.894531 C 806.414062 510.621094 797.542969 515.675781 797.378906 522.179688 C 797.214844 528.691406 805.8125 534.1875 816.589844 534.460938 C 827.367188 534.734375 836.238281 529.679688 836.402344 523.175781 C 836.570312 516.664062 827.96875 511.167969 817.191406 510.894531 Z M 589.160156 512.042969 C 578.390625 512.511719 569.890625 518.160156 570.167969 524.664062 C 570.449219 531.167969 579.40625 536.0625 590.179688 535.59375 C 600.949219 535.128906 609.449219 529.480469 609.167969 522.976562 C 608.886719 516.472656 599.929688 511.578125 589.160156 512.042969 Z M 884.566406 492.011719 C 874.96875 490.96875 868.496094 495.761719 867.863281 501.554688 C 867.234375 507.351562 872.6875 511.949219 882.28125 512.996094 C 891.875 514.039062 900.164062 510.183594 900.796875 504.394531 C 901.421875 498.597656 894.15625 493.054688 884.566406 492.011719 Z M 1083.269531 533.929688 C 1073.769531 532.214844 1065.234375 535.480469 1064.199219 541.21875 C 1063.167969 546.953125 1070.03125 552.988281 1079.53125 554.699219 C 1089.03125 556.40625 1097.566406 553.144531 1098.597656 547.410156 C 1099.628906 541.671875 1092.765625 535.636719 1083.269531 533.929688 Z M 512.121094 473.652344 C 502.835938 475.566406 496.246094 481.664062 497.402344 487.269531 C 498.558594 492.878906 507.023438 495.875 516.308594 493.960938 C 525.59375 492.046875 532.183594 485.953125 531.027344 480.34375 C 529.875 474.734375 521.410156 471.742188 512.121094 473.652344 Z M 303.707031 528.261719 C 294.578125 530.816406 288.425781 537.355469 289.96875 542.871094 C 291.515625 548.382812 300.167969 550.78125 309.296875 548.226562 C 318.429688 545.671875 324.578125 539.132812 323.035156 533.621094 C 321.492188 528.105469 312.839844 525.707031 303.707031 528.261719 Z M 686.699219 566.816406 C 690.578125 572.007812 698.652344 576.992188 704.613281 576.914062 C 716.089844 576.769531 721.90625 567.511719 721.34375 566.558594 C 714.175781 554.46875 693.449219 554.542969 686.699219 566.816406 Z M 831.40625 259.773438 C 831.304688 248.136719 786.890625 271.152344 764.871094 324.695312 C 756.011719 346.234375 744.71875 364.023438 737.890625 375.898438 L 757.007812 379.6875 C 772.054688 369.652344 791.175781 353.046875 806.554688 330.160156 C 821.304688 308.210938 831.5625 276.703125 831.40625 259.773438 Z M 585.691406 247.804688 C 568.496094 319.914062 614.386719 363.097656 645.414062 381.089844 L 659.25 376.816406 C 648.125 363.710938 636.929688 346.328125 629.007812 321.878906 C 610.703125 265.355469 589.417969 232.1875 585.691406 247.804688 Z M 983.59375 241.113281 C 966.082031 258.300781 950.957031 277.835938 941.011719 297.773438 C 923.683594 332.515625 932.632812 364.625 945.183594 386.242188 L 965.109375 385.140625 C 961.5625 366.75 960.867188 347.570312 972.605469 318.5 C 1000.21875 250.140625 988.816406 235.984375 983.59375 241.113281 Z M 1135.347656 262.816406 C 1132.054688 253.527344 1113.894531 274.804688 1091.328125 342.625 C 1080.394531 375.492188 1070.890625 389.246094 1056.933594 404.554688 L 1072.222656 412.988281 C 1080.511719 407.898438 1089.75 401.160156 1098.816406 392.980469 C 1134.035156 361.199219 1156.226562 321.632812 1135.347656 262.816406 Z M 409.046875 275.917969 C 401.472656 272.882812 408.773438 315.054688 416.902344 340.007812 C 425.96875 367.832031 424.96875 385.863281 421.222656 402.832031 L 441.738281 403.964844 C 463.105469 366.050781 451.253906 292.84375 409.046875 275.917969 Z M 329.523438 422.753906 L 310.949219 433.265625 C 305.089844 430.515625 299.25 427.167969 293.671875 423.363281 C 259.808594 400.269531 237.414062 354.054688 256.960938 309.1875 C 265.285156 290.078125 279.621094 355.84375 300.496094 389.882812 C 308.632812 403.152344 319.976562 414.28125 329.523438 422.753906 " fill-opacity="1" fill-rule="nonzero"/><path fill="#c6826d" d="M 695.09375 498.023438 C 695.097656 507.171875 713.03125 507.171875 713.027344 498.019531 C 713.027344 488.871094 695.09375 488.875 695.09375 498.023438 Z M 974.949219 503.710938 C 973.054688 511.683594 988.671875 515.394531 990.566406 507.429688 C 992.460938 499.457031 976.84375 495.746094 974.949219 503.710938 Z M 406.832031 488.636719 C 409.429688 496.253906 394.5 501.335938 391.902344 493.71875 C 389.308594 486.101562 404.238281 481.019531 406.832031 488.636719 " fill-opacity="1" fill-rule="nonzero"/><g clip-path="url(#7b62bbe586)"><path fill="#000000" d="M 618.121094 476.257812 C 603.21875 475.753906 602.097656 509.203125 616.992188 509.703125 C 631.890625 510.207031 633.011719 476.757812 618.121094 476.257812 Z M 781.21875 476.28125 C 766.3125 476.328125 766.421875 509.796875 781.324219 509.746094 C 796.230469 509.699219 796.121094 476.234375 781.21875 476.28125 Z M 726.847656 537.597656 C 723.6875 536.929688 720.433594 535.65625 717.175781 533.621094 C 716.339844 536.859375 715.023438 540.660156 713.625 541.53125 C 712.621094 542.15625 701.59375 542.957031 697.453125 542.269531 C 694.835938 541.835938 692.796875 537.832031 691.5 534.507812 C 687.789062 535.957031 683.609375 536.75 679.226562 536.65625 C 679.484375 552.417969 685.5 560.6875 686.273438 562.242188 C 695.296875 551.480469 711.078125 551.160156 720.992188 561.347656 C 724.097656 557.207031 726.375 543.125 726.847656 537.597656 Z M 717.71875 566.628906 C 711.523438 557.925781 698.605469 557.046875 690.972656 568.015625 C 699.1875 575.90625 710.027344 576.542969 717.71875 566.628906 Z M 697.285156 531.488281 C 697.832031 532.871094 698.5 534.558594 699.511719 536.539062 C 703.75 536.714844 706.90625 536.367188 708.78125 536.101562 C 709.824219 533.726562 710.589844 531.148438 711 528.773438 C 699.839844 518.097656 711.046875 521.65625 697.285156 531.488281 Z M 709.246094 496.242188 C 707.65625 493.144531 700.253906 493.328125 698.679688 497.683594 C 697.546875 504.699219 712.234375 502.0625 709.246094 496.242188 Z M 671.324219 529.507812 C 671.238281 529.472656 671.160156 529.441406 671.136719 529.441406 C 671.160156 529.453125 671.238281 529.480469 671.324219 529.507812 Z M 733.839844 538.160156 C 728.871094 602.226562 673.511719 585.988281 672.328125 535.777344 C 666.328125 534.367188 660.191406 531.191406 654.515625 525.695312 C 652.226562 523.480469 655.25 519.375 659.007812 522.003906 C 660.601562 523.707031 678.546875 539.230469 694.863281 524.722656 C 699.359375 520.726562 700.566406 515.179688 701.140625 507.570312 C 692.472656 505.671875 688.566406 496.644531 694.449219 491.367188 C 701.363281 485.160156 716.265625 488.234375 716.484375 498.792969 C 716.554688 502.214844 713.558594 506.3125 708.160156 507.539062 C 707.5625 516.199219 706.820312 513.445312 709.328125 517.445312 C 723.082031 538.113281 744.269531 534.539062 749.515625 521.324219 C 750.203125 519.585938 752.578125 519.648438 753.976562 520.238281 C 760.988281 523.210938 749.664062 537.398438 733.839844 538.160156 Z M 919.585938 464.625 C 913.78125 463.242188 907.375 469.25 905.285156 478.039062 C 903.195312 486.832031 906.207031 495.078125 912.011719 496.457031 C 917.816406 497.839844 924.21875 491.832031 926.308594 483.042969 C 928.402344 474.25 925.390625 466.003906 919.585938 464.625 Z M 984.535156 537.148438 C 980.949219 534.789062 978.125 530.894531 976.742188 526.171875 C 973.714844 530.5 970.167969 532.722656 966.65625 533.433594 C 967.371094 555.464844 977.941406 553.101562 984.535156 537.148438 Z M 977.695312 505.925781 C 978.191406 508.195312 981.472656 510.035156 984.648438 509.289062 C 988.324219 508.421875 988.832031 504.894531 986.5 503.167969 C 982.140625 499.9375 976.949219 502.535156 977.695312 505.925781 Z M 1005.667969 532.632812 C 1000.472656 538.613281 994.675781 540.371094 989.578125 539.28125 C 981.105469 560.457031 962.804688 559.839844 961.421875 533.421875 C 955.652344 532.25 950.867188 527.40625 950.039062 521.988281 C 949.546875 518.761719 954.84375 519.242188 955.261719 521.980469 C 956.289062 528.679688 968.316406 537.917969 976.964844 512.191406 C 967.789062 506.351562 972.457031 495.953125 982.398438 496.902344 C 993.257812 497.929688 996.933594 508.699219 989.695312 512.917969 C 987.300781 514.316406 984.574219 514.617188 981.996094 514.160156 C 981.738281 517.300781 979.128906 522.269531 983.777344 530.089844 C 984.835938 531.871094 987.1875 534.066406 989.203125 534.628906 C 996.140625 536.566406 1001.410156 529.347656 1001.371094 529.347656 C 1003.207031 527.230469 1007.679688 530.320312 1005.667969 532.632812 Z M 1049.613281 515.5625 C 1061.265625 498.160156 1075.652344 505.226562 1074.632812 499.855469 C 1073.375 493.261719 1047.519531 500.4375 1041.339844 519.101562 C 1040.511719 521.609375 1043.605469 523.394531 1045.726562 522.4375 C 1060.535156 515.746094 1074.359375 519.339844 1081.066406 525.601562 C 1082.042969 526.511719 1084.023438 526.636719 1084.972656 525.636719 C 1088.417969 522.03125 1071.171875 509.851562 1049.613281 515.5625 Z M 1088.34375 421.226562 C 1107.675781 411.222656 1130.328125 396.253906 1146.894531 376.632812 C 1186.648438 329.542969 1186.648438 250.9375 1157.375 207.292969 C 1153.601562 201.664062 1145.261719 190.367188 1138.550781 191.519531 C 1117.234375 195.179688 1101.121094 226.960938 1092.546875 246.875 C 1067.128906 305.90625 1072.203125 344.855469 1034.523438 393.027344 C 1042.148438 395.445312 1049.316406 398.230469 1056.042969 401.339844 C 1088.539062 365.3125 1085.683594 335.21875 1111.730469 283.804688 C 1115.054688 277.242188 1120.863281 266.675781 1126.183594 261.597656 C 1131.96875 256.066406 1136.574219 258.527344 1137.894531 262.199219 C 1160.589844 326.339844 1134.195312 375.957031 1077.171875 413.066406 C 1081.097656 415.65625 1084.820312 418.382812 1088.34375 421.226562 Z M 1072.066406 409.839844 C 1080.050781 404.800781 1089.1875 398.066406 1098.460938 389.5 C 1136.867188 354.039062 1150.972656 314.902344 1132.847656 263.558594 C 1132.601562 263.175781 1128.878906 266.398438 1125.511719 271.421875 C 1096.015625 315.4375 1097.34375 363.425781 1061.347656 403.90625 C 1065.066406 405.78125 1068.640625 407.761719 1072.066406 409.839844 Z M 988.382812 383.644531 C 989.460938 368.175781 993.078125 350.375 1000.300781 332.730469 C 1007.867188 314.25 1042.171875 253.566406 1023.355469 201.019531 C 1019.796875 191.09375 1013.882812 180.59375 1005.824219 174.070312 C 989.828125 161.308594 953.609375 214.78125 942.054688 231.878906 C 921.140625 262.839844 890.964844 305.457031 906.929688 361.261719 C 909.824219 371.367188 914.085938 380.417969 918.664062 388.140625 C 925.773438 386.234375 933.292969 384.765625 941.214844 383.792969 C 928.960938 360.890625 924.542969 338.5 931.753906 313.4375 C 939.28125 287.269531 961.761719 258.605469 981.328125 239.378906 C 986.902344 233.953125 1006.355469 238.246094 978.714844 310.835938 C 968.597656 337.40625 962.359375 352.890625 967.3125 382.402344 C 974.089844 382.484375 981.117188 382.890625 988.382812 383.644531 Z M 987.101562 259.785156 C 988.503906 248.132812 986.53125 242.339844 985.777344 242.933594 C 942.09375 285.894531 918.175781 330.65625 946.414062 383.230469 C 951.433594 382.757812 956.605469 382.480469 961.941406 382.40625 C 953.308594 328.714844 981.015625 310.335938 987.101562 259.785156 Z M 860.148438 579.703125 C 823.230469 579.703125 810.484375 619.1875 839.199219 630.597656 C 844.980469 620.003906 843.773438 613.570312 848.105469 614.847656 C 849.53125 615.265625 850.351562 616.761719 849.929688 618.1875 C 849.832031 618.53125 847.984375 626.375 844.605469 632.355469 C 849.921875 633.730469 855.824219 634.339844 861.738281 634.1875 C 865.941406 626.058594 865.671875 617.835938 869.757812 617.976562 C 871.503906 618.039062 872.125 619.734375 871.804688 621.1875 C 871.324219 623.375 869.601562 629.292969 867.484375 633.804688 C 918.8125 628.175781 903.746094 579.703125 860.148438 579.703125 Z M 828.453125 259.261719 L 828.453125 259.257812 C 828.449219 259.253906 828.441406 259.25 828.453125 259.261719 Z M 875.449219 265.394531 C 878.019531 252.90625 882.027344 223.671875 879.507812 205.578125 C 878.714844 199.863281 875.703125 192.839844 873.773438 192.058594 C 871.300781 191.054688 822.449219 193.210938 784.054688 226.335938 C 745.386719 259.691406 733.636719 301.765625 712.589844 371.183594 C 720.605469 371.558594 728.304688 372.285156 735.699219 373.347656 C 767.113281 319.367188 759.59375 324.152344 772.101562 303.15625 C 797.328125 260.800781 834.457031 243.574219 834.457031 260.476562 C 835.1875 291.382812 810.085938 345.246094 763.53125 379.277344 C 771.285156 381.507812 778.613281 384.15625 785.519531 387.175781 C 823.972656 362.539062 863.828125 321.773438 875.449219 265.394531 Z M 755.503906 377.140625 C 792.121094 352.515625 821.464844 311.050781 827.796875 266.835938 C 828.882812 259.242188 828.453125 258.023438 824.492188 259.757812 C 816.773438 263.148438 798.628906 275.738281 784.035156 296.28125 C 767.246094 319.894531 774.640625 319.007812 742.4375 374.417969 C 746.914062 375.203125 751.265625 376.113281 755.503906 377.140625 Z M 682.234375 371.683594 C 645.285156 301.71875 655.898438 263.328125 618.347656 208.691406 C 599.519531 181.296875 577.195312 167.507812 565.414062 169.667969 C 552.363281 172.214844 536.242188 224.753906 540.683594 271.699219 C 545.558594 323.226562 573.40625 360.339844 616.605469 386.195312 C 621.90625 389.378906 616.027344 387.785156 638.304688 380.453125 C 605.199219 359.183594 566.359375 313.851562 582.238281 247.039062 C 583.726562 240.898438 587.6875 239.808594 591.855469 241.789062 C 610.882812 250.828125 633.777344 329.730469 643.492188 348.132812 C 648.332031 357.285156 654.019531 365.90625 661.265625 374.539062 C 668 373.253906 674.992188 372.292969 682.234375 371.683594 Z M 654.628906 375.921875 C 623.324219 337.296875 625.21875 305.53125 601.816406 263.851562 C 600.710938 261.875 594.265625 249.671875 589.953125 247.613281 C 587.773438 247.554688 565.015625 329.679688 645.945312 378.125 C 648.789062 377.332031 651.683594 376.59375 654.628906 375.921875 Z M 540.53125 579.742188 C 500.425781 581.792969 486.597656 628.355469 536.863281 633.675781 C 534.769531 629.304688 533.148438 623.609375 532.613281 621.1875 C 531.84375 617.707031 537.105469 616.550781 537.875 620.027344 C 539.484375 627.226562 541.875 631.390625 543.269531 634.078125 C 548.996094 634.1875 554.796875 633.628906 560.046875 632.304688 C 556.742188 625.816406 554.589844 618.539062 554.488281 618.1875 C 553.484375 614.773438 558.652344 613.253906 559.65625 616.671875 C 561.722656 623.695312 563.964844 627.90625 565.324219 630.636719 C 581.066406 624.511719 584.28125 606.664062 576.140625 594.636719 C 566.769531 580.792969 545.875 579.46875 540.53125 579.742188 Z M 466.726562 406.398438 C 479.816406 385.523438 485.613281 361.335938 482.757812 336.074219 C 479.421875 306.597656 466.347656 285.625 457.644531 270.820312 C 446.144531 251.238281 409.523438 187.492188 391.410156 200.996094 C 388.5 203.167969 384.695312 206.984375 381.027344 212.164062 C 355.640625 247.96875 367.996094 301.621094 385.59375 342.457031 C 394.488281 363.101562 398.410156 383.585938 398.972656 401.097656 C 405.796875 400.449219 412.417969 400.128906 418.832031 400.113281 C 423.761719 375.984375 421.273438 363.445312 412.996094 335.960938 C 408.792969 321.996094 395.046875 268.222656 409.949219 273.898438 C 412.242188 274.523438 415.082031 276.257812 416.863281 277.320312 C 454.5 299.660156 464.113281 365.042969 445.90625 401.984375 C 453.175781 403.039062 460.117188 404.523438 466.726562 406.398438 Z M 439.828125 401.214844 C 461.859375 358.558594 444.847656 293.933594 409.332031 278.441406 C 402.140625 310.433594 434.296875 351.769531 424.53125 400.183594 C 429.773438 400.316406 434.871094 400.667969 439.828125 401.214844 Z M 349.199219 411.460938 C 335.988281 398.960938 325.125 384.851562 316.195312 367.214844 C 308.277344 351.570312 270.167969 234.203125 244.230469 234.394531 C 240.351562 234.421875 233.917969 241.484375 231.039062 245.304688 C 193.441406 295.199219 211.566406 385.804688 254.359375 423.535156 C 265.277344 433.164062 278.523438 440.089844 290.878906 445.128906 C 295.328125 441.027344 300.140625 437.128906 305.316406 433.457031 C 264.480469 412.023438 231.726562 360.433594 254.457031 308.015625 C 256.980469 302.269531 261.277344 302.667969 264.199219 305.304688 C 270.230469 310.742188 277.464844 331.578125 282.003906 343.3125 C 296.054688 379.632812 302.953125 395.636719 329.261719 419.496094 C 335.53125 416.519531 342.175781 413.828125 349.199219 411.460938 Z M 324.9375 421.625 C 319.625 416.753906 314.050781 411.289062 309.273438 405.730469 C 283.019531 375.222656 270.257812 317.042969 260.703125 308.28125 C 260.40625 308.582031 259.984375 309.183594 259.46875 310.355469 C 229.824219 378.726562 300.03125 430.914062 309.03125 430.914062 C 314.015625 427.597656 319.3125 424.492188 324.9375 421.625 Z M 257.890625 644.210938 C 255.800781 639.84375 254.179688 634.15625 253.640625 631.714844 C 252.871094 628.242188 258.132812 627.070312 258.902344 630.550781 C 260.511719 637.753906 262.902344 641.921875 264.300781 644.605469 C 270.027344 644.714844 275.820312 644.15625 281.078125 642.832031 C 277.769531 636.347656 275.617188 629.066406 275.515625 628.714844 C 274.511719 625.300781 279.679688 623.777344 280.683594 627.199219 C 282.75 634.226562 284.996094 638.433594 286.351562 641.167969 C 312.859375 630.851562 304.363281 593.964844 270.039062 590.46875 C 223.988281 585.816406 204.117188 638.515625 257.890625 644.210938 Z M 1210.691406 614.6875 L 1203.433594 614.6875 C 1227.84375 582.757812 1246.492188 539.382812 1237.6875 488.917969 C 1236.839844 484.058594 1234.492188 479.707031 1231.308594 476.445312 C 1231.28125 483.125 1229.945312 488.324219 1226.964844 493.867188 C 1225.167969 497.199219 1220.050781 494.503906 1221.875 491.125 C 1226.878906 481.824219 1225.457031 471.957031 1225.421875 471.9375 C 1221.558594 469.789062 1216.886719 468.722656 1214.375 468.722656 C 1214.953125 474.792969 1211.511719 485.847656 1208.558594 490.402344 C 1206.515625 493.554688 1201.621094 490.492188 1203.703125 487.261719 C 1203.777344 487.144531 1208.84375 479.09375 1208.4375 468.984375 C 1198.386719 470.5 1187.457031 477.5625 1178.523438 492.800781 C 1153.816406 534.96875 1131.90625 552.359375 1131.90625 553.222656 C 1125.703125 576.394531 1112.996094 597.921875 1094.445312 614.6875 L 1084.953125 614.6875 C 1160.179688 556.183594 1147.148438 416.546875 1002.09375 390.816406 C 943.523438 380.425781 884.113281 392.820312 850.644531 441.566406 C 875.449219 480.101562 880.234375 529.917969 861.832031 574.339844 C 915.101562 575.929688 924.804688 639.519531 859.648438 639.519531 C 800.753906 639.519531 809.417969 578.898438 854.796875 574.554688 C 883.0625 511.425781 862.132812 428.253906 786.601562 393.316406 C 706.242188 356.019531 586.496094 376.390625 548.96875 471.339844 C 526.671875 527.59375 549.207031 570.046875 549.207031 571.257812 C 551.09375 575.683594 550.167969 574.503906 554.125 575.253906 C 595.90625 583.171875 601.367188 639.519531 544.769531 639.519531 C 477.550781 639.519531 490.515625 573.433594 544.976562 574.328125 C 520.835938 520.054688 542.671875 471.042969 542.671875 470.21875 C 499.757812 396.828125 400.46875 392.820312 333.648438 423.402344 C 262.582031 455.925781 242.070312 529.832031 266.96875 584.882812 C 316.289062 586.53125 325.675781 650.046875 265.800781 650.046875 C 201.535156 650.046875 209.980469 588.65625 261.007812 585 C 239.957031 541.761719 248.230469 487.136719 287.394531 448.449219 C 261.007812 437.652344 242.398438 422.699219 228.234375 398.472656 C 178.171875 312.8125 222.035156 229.910156 243.316406 229.75 C 270.03125 229.554688 302.28125 317.203125 311.140625 342.199219 C 323.582031 377.304688 340.589844 397.664062 353.988281 409.917969 C 366.890625 405.933594 380.308594 403.234375 393.828125 401.648438 C 393.601562 388.617188 391.441406 374.0625 386.683594 359.050781 C 381.074219 341.339844 356.089844 295.886719 362.5625 247.550781 C 365.890625 222.707031 380.75 195.398438 395.597656 194.34375 C 418.234375 192.730469 451.855469 251.582031 465.109375 274.410156 C 475.179688 291.757812 484.859375 310.402344 487.804688 335.703125 C 490.839844 361.832031 485.089844 386.746094 471.976562 407.988281 C 505.277344 418.726562 529.753906 439.511719 544.996094 464.375 C 557.644531 434.503906 580.710938 407.9375 613.589844 390.835938 C 584.65625 373.695312 546.996094 342.605469 536.15625 287.6875 C 525.8125 235.289062 543.351562 167.59375 562.535156 163.84375 C 584.65625 159.796875 626.804688 190.226562 650.945312 261.867188 C 661.550781 293.359375 663.554688 323.648438 689.058594 371.21875 C 695.296875 370.894531 700.667969 370.859375 706.332031 370.96875 C 728.605469 296.84375 736.160156 280.046875 745.4375 264.050781 C 774.382812 214.160156 821.214844 188.378906 872.707031 186.980469 C 894.023438 186.597656 886.855469 259.007812 872.980469 296.445312 C 859.136719 333.808594 825.96875 367.539062 791.722656 390.039062 C 815.507812 401.617188 833.925781 417.746094 847.15625 436.410156 C 861.988281 415.460938 884.238281 398.519531 913.925781 389.5 C 885.246094 341.0625 895.28125 293.878906 925.707031 246.660156 C 943.949219 218.355469 985.445312 152.007812 1008.988281 170.800781 C 1015.316406 175.917969 1020.324219 182.875 1024.054688 190.105469 C 1043.410156 227.617188 1032.238281 276.199219 1014.699219 314.816406 C 1008.214844 329.09375 995.511719 353.9375 993.566406 384.234375 C 1005.386719 385.707031 1017.066406 387.957031 1028.617188 391.246094 C 1069.746094 339.445312 1061.367188 296.75 1092.378906 233.375 C 1112.4375 192.390625 1131.882812 185.464844 1139.46875 186.574219 C 1145.726562 186.386719 1152.855469 193.574219 1156.851562 198.375 C 1192.613281 241.414062 1195.722656 332.707031 1146.761719 385.363281 C 1129.742188 403.667969 1109.558594 416.464844 1092.796875 424.96875 C 1128.90625 456.6875 1141.605469 501.316406 1134.308594 542.410156 C 1146.875 529.339844 1160.226562 512.589844 1173.539062 489.875 C 1198.175781 447.832031 1238.6875 461.042969 1243.378906 487.925781 C 1252.851562 542.199219 1231.960938 585.917969 1210.691406 614.6875 Z M 417.722656 516.988281 C 414.488281 516.433594 410.992188 514.488281 407.488281 510.449219 C 406.773438 515.738281 404.160156 520.175781 400.46875 522.800781 C 403.480469 527.007812 405.632812 533.425781 411.835938 533.414062 C 417.421875 531.800781 418.035156 523.351562 417.722656 516.988281 Z M 401.417969 487.277344 C 395.382812 487.035156 392.054688 493.847656 396.328125 494.921875 C 402.941406 496.574219 407.601562 487.523438 401.417969 487.277344 Z M 422.839844 516.75 C 424.277344 543.800781 406.300781 543.347656 396.238281 524.847656 C 391.378906 526.234375 385.542969 524.917969 379.902344 519.542969 C 376.882812 516.679688 380.929688 514.460938 382.953125 516.390625 C 394.90625 527.753906 405.777344 514.964844 401.101562 499.578125 C 398.183594 500.191406 395 499.800781 392.335938 497.96875 C 385.390625 493.179688 389.640625 483.160156 399.507812 482.519531 C 408.933594 481.90625 413.984375 492.183594 405.613281 497.714844 C 405.640625 497.738281 406.027344 498.757812 406.066406 498.859375 C 414.980469 520.78125 427.308594 511.421875 427.742188 503.851562 C 427.78125 503.851562 428.042969 501.6875 430.566406 502.246094 C 436.128906 503.472656 431.292969 514.460938 422.839844 516.75 Z M 506 459.863281 C 506.992188 459.863281 472.511719 440.804688 453.21875 477.078125 C 452.519531 478.390625 453.730469 480.007812 454.917969 480.511719 C 458.929688 482.210938 458.152344 478.539062 463.933594 471.542969 C 476.480469 456.363281 494.378906 458.855469 503.980469 464.199219 C 506.945312 465.851562 509.96875 462.070312 506 459.863281 Z M 355.488281 506.253906 C 322.773438 487.980469 306.082031 519.671875 306.035156 519.671875 C 304.441406 522.578125 299.167969 519.777344 300.613281 517.140625 C 310.636719 498.84375 332.957031 488.203125 357.511719 501.917969 C 361.441406 504.117188 358.492188 507.9375 355.488281 506.253906 " fill-opacity="1" fill-rule="nonzero"/></g></svg>